<svg width="230" height="29" viewBox="0 0 230 29" fill="none" xmlns="http://www.w3.org/2000/svg">
<path d="M65.9822 0.345687H60.4888C60.1185 0.345687 59.8098 0.654298 59.8098 1.02464V15.0976C59.8098 17.3813 58.884 18.6158 56.7854 18.6158C54.6868 18.6158 53.761 17.3813 53.761 15.0976V1.02464C53.761 0.654298 53.5141 0.345687 53.082 0.345687H47.5269C47.1566 0.345687 46.8479 0.654298 46.8479 1.02464V16.4555C46.8479 21.2082 50.3045 25.0967 56.7237 25.0967C63.2046 25.0967 66.7229 21.2699 66.7229 16.4555V1.02464C66.7229 0.654298 66.4142 0.345687 65.9822 0.345687Z" fill="#8A92AD"/>
<path d="M105.856 10.2214L101.844 8.86351C100.671 8.43145 100.547 7.81421 100.547 7.38214C100.547 6.76491 101.165 6.14768 102.337 6.14768C103.634 6.14768 105.485 6.51802 107.275 7.87593C107.522 8.0611 107.892 8.0611 108.078 7.8142L111.164 3.92564C111.349 3.67875 111.349 3.3084 111.102 3.06151C108.448 0.83947 105.238 0.0370702 102.276 0.0370702C96.5353 0.0370702 93.0788 3.61702 93.0788 7.50559C93.0788 10.53 94.8688 13.3693 98.6339 14.6038L102.152 15.8382C103.88 16.4555 104.189 16.8875 104.189 17.6282C104.189 18.3072 103.51 19.0479 102.09 19.0479C100.115 19.0479 97.8315 17.8751 96.2884 16.5789C96.0415 16.3938 95.6712 16.3938 95.486 16.6406L92.3382 20.8378C92.153 21.0847 92.153 21.4551 92.3999 21.702C94.6836 23.6771 98.0784 25.1585 102.399 25.1585C107.769 25.1585 111.719 22.0106 111.719 17.3196C111.719 14.0483 109.682 11.5176 105.856 10.2214Z" fill="#8A92AD"/>
<path d="M80.6724 10.7153H77.0924V6.51809H80.6724C82.7093 6.51809 83.4499 7.44393 83.4499 8.61668C83.4499 9.78942 82.6475 10.7153 80.6724 10.7153ZM86.104 15.5914C89.0668 14.1101 90.5481 11.888 90.5481 8.49323C90.5481 4.23432 87.0916 0.40747 81.2279 0.40747H70.6732C70.3029 0.40747 70.056 0.777814 70.056 1.08643V24.0475C70.056 24.4178 70.3646 24.6647 70.6732 24.6647H76.3518C76.7221 24.6647 76.969 24.3561 76.969 24.0475V16.6407H79.191L83.2031 24.1092C83.3882 24.4179 83.7586 24.6647 84.1289 24.6647H90.6716C91.0419 24.6647 91.1654 24.4179 90.9802 24.1092L86.104 15.5914Z" fill="#8A92AD"/>
<path d="M17.2825 0.345687H0.802403C0.308617 0.345687 0 0.716025 0 1.08636V23.924C0 24.2943 0.308617 24.603 0.678957 24.603H6.23406C6.6044 24.603 6.85129 24.2326 6.85129 23.924V16.5172H13.8877C14.2581 16.5172 14.5667 16.2703 14.6284 15.9L15.6777 10.8387C15.7395 10.53 15.616 10.2214 15.1839 10.2214H6.91301V6.51802H16.2332C16.6036 6.51802 16.9122 6.27113 16.9739 5.90079L17.9615 1.14809C18.0232 0.777752 17.7763 0.345687 17.2825 0.345687Z" fill="#8A92AD"/>
<path d="M228.253 6.5798C228.623 6.5798 228.932 6.33291 228.994 5.96257L229.981 1.20988C230.043 0.777812 229.981 0.40747 229.364 0.40747H212.76C212.267 0.40747 212.02 0.777818 212.02 1.14816V23.9858C212.02 24.3561 212.328 24.6647 212.699 24.6647H227.821C228.191 24.6647 228.5 24.4178 228.561 24.0475L229.549 19.2948C229.611 18.8628 229.549 18.4924 228.932 18.4924H218.871V15.7149H225.907C226.278 15.7149 226.586 15.468 226.648 15.0976L227.697 10.0363C227.759 9.7277 227.636 9.41908 227.204 9.41908H218.871V6.64153H228.253V6.5798Z" fill="#8A92AD"/>
<path d="M171.961 14.11L174.183 6.70319L176.405 14.11H171.961ZM178.751 0.901193C178.689 0.592576 178.319 0.345687 178.01 0.345687H170.418C170.109 0.345687 169.739 0.592576 169.677 0.901193L162.703 24.0474C162.579 24.3561 162.764 24.6647 163.135 24.6647H169.369C169.677 24.6647 170.048 24.3561 170.109 24.0474L171.097 20.5292H177.331L178.38 24.0474C178.442 24.3561 178.812 24.6647 179.121 24.6647H185.293C185.602 24.6647 185.787 24.3561 185.725 24.0474L178.751 0.901193Z" fill="#8A92AD"/>
<path d="M160.789 0.345687H155.296C154.926 0.345687 154.617 0.654298 154.617 1.02464V15.0976C154.617 17.3813 153.691 18.6158 151.593 18.6158C149.494 18.6158 148.568 17.3813 148.568 15.0976V1.02464C148.568 0.654298 148.321 0.345687 147.889 0.345687H142.396C142.025 0.345687 141.717 0.654298 141.717 1.02464V16.4555C141.717 21.2082 145.173 25.0967 151.593 25.0967C158.074 25.0967 161.592 21.2699 161.592 16.4555V1.02464C161.468 0.654298 161.16 0.345687 160.789 0.345687Z" fill="#8A92AD"/>
<path d="M198.749 10.7153H195.169V6.51809H198.749C200.724 6.51809 201.527 7.44393 201.527 8.61668C201.527 9.78942 200.724 10.7153 198.749 10.7153ZM204.181 15.5914C207.143 14.1101 208.625 11.888 208.625 8.49323C208.625 4.23432 205.168 0.40747 199.305 0.40747H188.75C188.379 0.40747 188.133 0.777814 188.133 1.08643V24.0475C188.133 24.4178 188.441 24.6647 188.75 24.6647H194.428C194.799 24.6647 195.046 24.3561 195.046 24.0475V16.6407H197.268L201.28 24.1092C201.465 24.4179 201.835 24.6647 202.206 24.6647H208.748C209.119 24.6647 209.242 24.4179 209.057 24.1092L204.181 15.5914Z" fill="#8A92AD"/>
<path d="M126.101 18.6775C122.953 18.6775 120.792 15.9 120.792 12.5052C120.792 9.11041 122.953 6.33286 126.101 6.33286C129.249 6.33286 131.409 9.11041 131.409 12.5052C131.409 15.9617 129.249 18.6775 126.101 18.6775ZM138.692 21.6402C137.89 21.9489 136.47 22.3192 134.804 21.9489C135.051 21.702 135.297 21.5168 135.544 21.2699C138.816 17.8134 139.742 12.6286 138.137 8.18456C136.47 3.61703 132.088 0.469135 127.212 0.0987951C122.274 -0.271545 117.274 2.13567 114.929 6.39458C112.46 10.9004 112.892 16.8258 116.287 20.7761C119.188 24.1709 123.817 25.5905 128.076 24.9733C128.138 25.035 128.199 25.0968 128.261 25.1585C130.668 27.3805 134.495 28.6767 137.828 28.6767L139.186 22.0106C139.186 21.7637 139.001 21.5168 138.692 21.6402Z" fill="#8A92AD"/>
<path d="M31.2939 18.6778C28.146 18.6778 25.9857 15.9002 25.9857 12.5054C25.9857 9.11064 28.146 6.33309 31.2939 6.33309C34.4418 6.33309 36.6021 9.11064 36.6021 12.5054C36.6638 15.9619 34.5035 18.6778 31.2939 18.6778ZM32.4049 0.037313C27.467 -0.333027 22.4674 2.07418 20.1219 6.33309C17.653 10.8389 18.0851 16.7643 21.4799 20.7146C26.2943 26.3315 35.6762 26.5166 40.7375 21.2084C44.0089 17.7519 44.9347 12.5671 43.3299 8.12306C41.6634 3.55554 37.281 0.469376 32.4049 0.037313Z" fill="#8A92AD"/>
</svg>
