<svg width="40" height="30" viewBox="0 0 40 30" fill="none" xmlns="http://www.w3.org/2000/svg">
<path d="M35.0856 3.96331C35.1148 3.93423 35.1614 3.93423 35.1906 3.96331C41.1231 9.9364 41.1056 19.5736 35.1381 25.5234C29.1707 31.4747 19.5073 31.4921 13.5194 25.5758C13.4902 25.5467 13.4902 25.5002 13.5194 25.4711L35.0856 3.96331Z" fill="#8DF5D6"/>
<path d="M4.54124 26.0367C4.51208 26.0658 4.46542 26.0658 4.43626 26.0367C-1.4962 20.0636 -1.4787 10.4264 4.48875 4.47658C10.4562 -1.47469 20.1196 -1.49214 26.1075 4.42424C26.1366 4.45332 26.1366 4.49985 26.1075 4.52893L4.54124 26.0367Z" fill="#8DF5D6"/>
<path d="M27.389 4.65106L33.5008 3.93569C33.5693 3.92696 33.6102 4.00984 33.5606 4.05928L12.3589 25.2021C12.3472 25.2137 12.3326 25.221 12.3166 25.2224L6.08377 26.06C6.01524 26.0687 5.97296 25.9858 6.02253 25.9364L27.3453 4.67142C27.3569 4.65979 27.3715 4.65252 27.389 4.65106Z" fill="#8DF5D6"/>
</svg>
