<svg width="199" height="49" viewBox="0 0 199 49" fill="none" xmlns="http://www.w3.org/2000/svg">
<path d="M74.2177 10.8393H63.2338C62.4822 10.8393 61.843 11.3854 61.7257 12.1274L57.2834 40.2928C57.195 40.8485 57.6255 41.3496 58.1892 41.3496H63.433C64.1846 41.3496 64.8238 40.8036 64.9411 40.06L66.1392 32.4633C66.2548 31.7197 66.8956 31.1736 67.6457 31.1736H71.1228C78.3581 31.1736 82.5339 27.6724 83.6244 20.7342C84.1158 17.6988 83.6452 15.3138 82.2239 13.6435C80.6628 11.8094 77.8939 10.8393 74.2177 10.8393ZM75.4848 21.1261C74.8842 25.0674 71.8728 25.0674 68.961 25.0674H67.3036L68.4664 17.7068C68.5354 17.2619 68.9209 16.9343 69.3706 16.9343H70.1302C72.1137 16.9343 73.9848 16.9343 74.9516 18.065C75.5282 18.7395 75.7049 19.7417 75.4848 21.1261Z" fill="#8A92AD"/>
<path d="M107.05 20.9992H101.791C101.342 20.9992 100.955 21.3269 100.886 21.7718L100.653 23.2429L100.286 22.7097C99.1469 21.0571 96.6078 20.5046 94.0734 20.5046C88.2611 20.5046 83.2967 24.9068 82.3299 31.0821C81.8272 34.1625 82.5419 37.108 84.2893 39.1622C85.8921 41.0509 88.1856 41.8379 90.9143 41.8379C95.5975 41.8379 98.1945 38.8265 98.1945 38.8265L97.9601 40.288C97.8717 40.8469 98.3021 41.348 98.8627 41.348H103.601C104.354 41.348 104.99 40.802 105.109 40.0584L107.951 22.056C108.041 21.5019 107.612 20.9992 107.05 20.9992ZM99.7187 31.2363C99.2112 34.2412 96.8262 36.2584 93.7843 36.2584C92.2569 36.2584 91.0363 35.7686 90.2526 34.8403C89.4752 33.9184 89.1797 32.6062 89.4271 31.1447C89.9008 28.1655 92.326 26.0824 95.3213 26.0824C96.8149 26.0824 98.0291 26.5787 98.8289 27.515C99.6304 28.461 99.9484 29.7812 99.7187 31.2363Z" fill="#8A92AD"/>
<path d="M135.063 20.9992H129.778C129.273 20.9992 128.8 21.2498 128.514 21.669L121.224 32.4071L118.134 22.0882C117.939 21.4425 117.344 20.9992 116.669 20.9992H111.475C110.844 20.9992 110.405 21.616 110.606 22.2102L116.428 39.2955L110.955 47.0222C110.524 47.6309 110.958 48.4677 111.702 48.4677H116.981C117.482 48.4677 117.951 48.2236 118.235 47.8124L135.815 22.4367C136.236 21.8296 135.804 20.9992 135.063 20.9992Z" fill="#8A92AD"/>
<path d="M152.563 10.8393H141.577C140.827 10.8393 140.188 11.3854 140.071 12.1274L135.629 40.2928C135.54 40.8485 135.971 41.3496 136.531 41.3496H142.168C142.692 41.3496 143.14 40.9674 143.222 40.447L144.483 32.4633C144.598 31.7197 145.239 31.1736 145.989 31.1736H149.465C156.702 31.1736 160.876 27.6724 161.968 20.7342C162.461 17.6988 161.987 15.3138 160.566 13.6435C159.006 11.8094 156.239 10.8393 152.563 10.8393ZM153.83 21.1261C153.231 25.0674 150.22 25.0674 147.306 25.0674H145.65L146.815 17.7068C146.884 17.2619 147.266 16.9343 147.717 16.9343H148.477C150.459 16.9343 152.332 16.9343 153.298 18.065C153.875 18.7395 154.05 19.7417 153.83 21.1261Z" fill="#8A92AD"/>
<path d="M185.394 20.9992H180.137C179.686 20.9992 179.302 21.3269 179.235 21.7718L179.002 23.2429L178.632 22.7097C177.494 21.0571 174.956 20.5046 172.422 20.5046C166.61 20.5046 161.647 24.9068 160.68 31.0821C160.179 34.1625 160.89 37.108 162.638 39.1622C164.244 41.0509 166.534 41.8379 169.263 41.8379C173.946 41.8379 176.543 38.8265 176.543 38.8265L176.309 40.288C176.22 40.8469 176.651 41.348 177.214 41.348H181.951C182.701 41.348 183.34 40.802 183.457 40.0584L186.301 22.056C186.388 21.5019 185.958 20.9992 185.394 20.9992ZM178.062 31.2363C177.558 34.2412 175.17 36.2584 172.128 36.2584C170.604 36.2584 169.38 35.7686 168.596 34.8403C167.819 33.9184 167.527 32.6062 167.771 31.1447C168.248 28.1655 170.67 26.0824 173.665 26.0824C175.159 26.0824 176.373 26.5787 177.173 27.515C177.977 28.461 178.295 29.7812 178.062 31.2363Z" fill="#8A92AD"/>
<path d="M191.595 11.6118L187.087 40.2928C186.998 40.8485 187.429 41.3496 187.989 41.3496H192.522C193.275 41.3496 193.914 40.8036 194.03 40.06L198.475 11.8961C198.564 11.3404 198.133 10.8377 197.573 10.8377H192.498C192.05 10.8393 191.664 11.1669 191.595 11.6118Z" fill="#8A92AD"/>
<path d="M11.6696 46.8231L12.5096 41.4878L10.6385 41.4444H1.70403L7.91306 2.07503C7.93233 1.95618 7.99497 1.84536 8.08652 1.76667C8.17806 1.68797 8.2953 1.64461 8.41736 1.64461H23.4822C28.4835 1.64461 31.9349 2.68533 33.7369 4.73948C34.5817 5.70312 35.1197 6.71012 35.3799 7.8183C35.6529 8.98109 35.6578 10.3703 35.3912 12.0647L35.3719 12.1884V13.2741L36.2167 13.7527C36.9281 14.1301 37.4935 14.5622 37.9271 15.0568C38.6498 15.8807 39.1172 16.9279 39.3148 18.1694C39.5187 19.4462 39.4513 20.9655 39.1172 22.6856C38.7318 24.6643 38.1086 26.3876 37.267 27.7977C36.4929 29.097 35.5068 30.1747 34.336 31.0098C33.2182 31.8032 31.8899 32.4055 30.3883 32.7909C28.9332 33.17 27.2741 33.3611 25.4545 33.3611H24.282C23.4437 33.3611 22.6294 33.663 21.9902 34.2043C21.3494 34.7568 20.9254 35.5116 20.7953 36.3371L20.7069 36.8173L19.2229 46.2208L19.1555 46.5661C19.1378 46.6753 19.1073 46.7299 19.0623 46.7669C19.0222 46.8006 18.9644 46.8231 18.9082 46.8231H11.6696Z" fill="#8A92AD"/>
<path d="M37.0165 12.3137C36.9715 12.6012 36.9201 12.8951 36.8623 13.197C34.8756 23.3971 28.0788 26.9208 19.398 26.9208H14.9781C13.9165 26.9208 13.0219 27.6917 12.8565 28.7388L10.5936 43.0906L9.95276 47.1588C9.84515 47.8462 10.3752 48.4661 11.069 48.4661H18.9082C19.8365 48.4661 20.625 47.7915 20.7712 46.8761L20.8483 46.4778L22.3242 37.1112L22.419 36.5973C22.5635 35.6786 23.3537 35.0041 24.282 35.0041H25.4545C33.0495 35.0041 38.9952 31.9205 40.7329 22.9972C41.4589 19.2695 41.083 16.157 39.1622 13.9679C38.5808 13.3078 37.8597 12.7602 37.0165 12.3137Z" fill="#8A92AD"/>
<path d="M34.9382 11.4849C34.6347 11.3966 34.3215 11.3163 34.0003 11.244C33.6775 11.1734 33.3466 11.1107 33.0062 11.0561C31.8145 10.8634 30.5087 10.7718 29.1098 10.7718H17.3021C17.0114 10.7718 16.7352 10.8377 16.4878 10.9565C15.9434 11.2183 15.5386 11.7339 15.4407 12.3651L12.9288 28.2747L12.8565 28.7388C13.0219 27.6917 13.9165 26.9208 14.9781 26.9208H19.398C28.0788 26.9208 34.8756 23.3955 36.8623 13.197C36.9217 12.8951 36.9715 12.6012 37.0165 12.3137C36.5138 12.0471 35.9693 11.819 35.3831 11.6247C35.2386 11.5765 35.0892 11.5299 34.9382 11.4849Z" fill="#8A92AD"/>
<path d="M15.4407 12.3651C15.5386 11.7339 15.9433 11.2183 16.4878 10.9582C16.7367 10.8393 17.0114 10.7735 17.3021 10.7735H29.1098C30.5087 10.7735 31.8144 10.865 33.0061 11.0577C33.3466 11.1123 33.6775 11.175 34.0003 11.2456C34.3215 11.3179 34.6347 11.3982 34.9382 11.4865C35.0892 11.5315 35.2386 11.5781 35.3847 11.6247C35.9709 11.819 36.5154 12.0487 37.0181 12.3137C37.6091 8.54424 37.0133 5.97776 34.9752 3.65379C32.7283 1.09533 28.673 0 23.4838 0H8.41895C7.35895 0 6.45474 0.770909 6.29092 1.81967L0.0160427 41.5938C-0.107624 42.3807 0.499467 43.0906 1.29286 43.0906H10.5936L12.9288 28.2747L15.4407 12.3651Z" fill="#8A92AD"/>
</svg>
