<svg width="225" height="34" viewBox="0 0 225 34" fill="none" xmlns="http://www.w3.org/2000/svg">
<path d="M122.188 12.4936C122.188 9.69973 120.408 7.86613 117.343 7.86613H111.185L105.874 28.2392H108.15L110.485 19.2167H115.272C116.964 19.2167 117.519 20.1482 117.169 21.6615L115.709 28.2392H117.927L119.328 21.8363C119.736 20.0318 119.124 18.5183 117.606 18.1691L117.635 18.0527C120.145 17.6161 122.188 15.346 122.188 12.4936ZM114.922 17.1794H111.04L112.936 9.90343H116.818C118.598 9.90343 119.853 10.7475 119.853 12.8721C119.853 15.3168 117.839 17.1794 114.922 17.1794Z" fill="#8A92AD"/>
<path d="M161.223 14.0361L153.576 20.9922L157.458 28.2392H155.123L151.417 21.225L149.607 28.2392H147.447L152.73 7.86613H154.889L151.621 20.4393L158.479 14.0361H161.223Z" fill="#8A92AD"/>
<path d="M167.462 13.6872C162.385 13.6872 159.437 18.1984 159.437 23.0007C159.437 26.4642 161.626 28.5887 164.427 28.5887C167.55 28.5887 169.505 27.1627 170.848 24.1357L168.688 23.7283C168.017 25.5328 166.674 26.6678 164.69 26.6678C162.793 26.6678 161.684 25.0962 161.684 22.7389C161.684 22.3605 161.713 22.0112 161.743 21.6328H171.664L171.957 20.5559C172.919 17.0052 171.373 13.6872 167.462 13.6872ZM169.943 19.7701H162.122C162.822 17.4126 164.486 15.6081 167.024 15.6081C169.389 15.6081 170.352 17.3254 169.943 19.7701Z" fill="#8A92AD"/>
<path d="M181.394 13.6872C176.316 13.6872 173.368 18.1984 173.368 23.0007C173.368 26.4642 175.557 28.5887 178.359 28.5887C181.482 28.5887 183.437 27.1627 184.779 24.1357L182.619 23.7283C181.949 25.5328 180.606 26.6678 178.621 26.6678C176.725 26.6678 175.616 25.0962 175.616 22.7389C175.616 22.3605 175.645 22.0112 175.674 21.6328H185.597L185.888 20.5559C186.852 17.0052 185.305 13.6872 181.394 13.6872ZM183.875 19.7701H176.054C176.754 17.4126 178.417 15.6081 180.957 15.6081C183.32 15.6081 184.283 17.3254 183.875 19.7701Z" fill="#8A92AD"/>
<path d="M210.136 13.6872C205.058 13.6872 202.111 18.1984 202.111 23.0007C202.111 26.4642 204.299 28.5887 207.101 28.5887C210.224 28.5887 212.179 27.1627 213.522 24.1357L211.362 23.7283C210.69 25.5328 209.348 26.6678 207.364 26.6678C205.467 26.6678 204.358 25.0962 204.358 22.7389C204.358 22.3605 204.386 22.0112 204.416 21.6328H214.338L214.63 20.5559C215.593 17.0052 214.046 13.6872 210.136 13.6872ZM212.617 19.7701H204.795C205.496 17.4126 207.159 15.6081 209.698 15.6081C212.062 15.6081 213.025 17.3254 212.617 19.7701Z" fill="#8A92AD"/>
<path d="M214.882 28.2395L217.513 18.0729C218.152 15.6081 220.326 13.8472 222.876 13.7243C223.349 13.7015 223.785 13.6872 224.133 13.6872C224.395 13.6872 224.541 13.6872 224.863 13.7164L224.337 15.6373C224.016 15.5791 223.666 15.5499 223.199 15.5499C221.623 15.5499 219.931 17.0052 219.376 19.1881L217.041 28.2395H214.882Z" fill="#8A92AD"/>
<path d="M196.036 13.6872C193.201 13.6872 191.414 14.984 190.097 16.5459C189.107 17.72 188.508 19.323 188.246 20.3367C187.985 21.3505 184.799 33.653 184.799 33.653H186.959L189.09 25.5053H189.207C189.54 27.061 190.659 28.5887 193.058 28.5887C197.524 28.5887 200.736 24.2231 200.736 19.2171C200.736 15.7537 199.098 13.6872 196.036 13.6872ZM192.971 26.6678C191.074 26.6678 189.848 25.3872 189.848 23.1463C189.848 19.6828 191.92 15.6081 195.451 15.6081C197.261 15.6081 198.428 16.976 198.428 19.3335C198.428 23.2627 196.123 26.6678 192.971 26.6678Z" fill="#8A92AD"/>
<path d="M132.723 23.0071C131.775 26.6749 129.691 28.5881 125.894 28.5881C122.974 28.5881 120.911 25.8816 121.774 22.6077L123.986 14.0359H126.145L123.946 22.5259C123.363 24.796 124.186 26.5032 126.436 26.5032C128.632 26.5032 130.041 24.9996 130.683 22.5259L132.886 14.0359H135.046L132.723 23.0071Z" fill="#8A92AD"/>
<path d="M136.036 19.2683C136.984 15.6004 139.069 13.6872 142.865 13.6872C145.657 13.6872 147.848 16.3937 146.985 19.6678L144.774 28.2395H142.615L144.833 19.6684C145.383 17.511 144.573 15.7721 142.323 15.7721C140.127 15.7721 138.718 17.2758 138.076 19.7495L135.873 28.2395H133.714L136.036 19.2683Z" fill="#8A92AD"/>
<path d="M26.373 0C20.7387 0.0026938 14.5334 3.43911 10.6396 6.69358L10.947 7.13873C16.9933 2.9117 25.3852 0.161949 27.699 4.28504C28.9198 6.46067 26.8454 10.8537 23.9262 14.3267C24.6257 12.7928 24.1644 9.84949 20.0932 9.84949C13.3223 9.84949 0 18.7937 0 27.9424C0 31.6104 2.54807 34 6.74885 34C17.9902 34 33.2402 15.6218 33.2402 6.38974C33.2388 3.12954 31.3583 0 26.373 0ZM21.1919 17.3416L20.1467 18.4941C16.4072 22.1572 12.9358 24.1139 10.5962 24.1139C8.65014 24.1139 7.71568 22.6226 8.20242 20.8967C9.21076 17.3211 15.689 12.0218 20.1006 12.0218C23.3218 12.0218 23.0767 14.8922 21.1919 17.3416Z" fill="#8A92AD"/>
<path d="M51.247 9.70252C50.2104 8.43339 48.5359 7.86536 47.3373 7.86536H40.7607L39.6456 12.0168H45.8455L46.4402 12.08C46.4459 12.08 47.0118 12.1447 47.3216 12.5675C47.5781 12.919 47.6145 13.4441 47.4311 14.1288L47.1374 15.2216H43.2323C39.8681 15.2216 35.1809 17.6278 34.1369 21.5147C33.6163 23.4518 34.0724 25.1311 35.0824 26.3651C36.0842 27.5899 37.9738 28.264 40.0161 28.264H43.6329V28.2653H48.2319L51.9767 14.3264C52.5997 12.0045 51.9253 10.5301 51.247 9.70252ZM44.7487 24.1122H40.8453C40.1922 24.1122 39.6476 23.8833 39.3082 23.4695C38.9514 23.0327 38.8455 22.416 39.0159 21.7776C39.3877 20.3919 40.8841 19.3074 42.4219 19.3074H46.0393L44.7487 24.1122Z" fill="#8A92AD"/>
<path d="M96.4147 7.86613C94.6367 7.86613 92.9838 8.3912 91.6385 9.38469C90.2808 10.3876 89.5321 11.5921 89.0846 13.2526C88.1187 16.8533 90.9554 18.5908 93.2365 19.8222C94.8708 20.7051 96.2826 21.4671 95.9789 22.5956C95.761 23.4063 95.4079 24.1136 93.3957 24.1136H87.2556L86.1413 28.266H92.9367C94.7603 28.266 96.4418 27.8875 97.7964 26.8507C99.1556 25.8082 99.9206 24.3575 100.396 22.5877C100.849 20.9024 100.542 19.2952 99.457 18.0917C98.5506 17.0862 97.2462 16.3848 96.0964 15.7658C94.6251 14.9765 93.2388 14.2309 93.4815 13.3259C93.6291 12.7801 94.1754 12.0175 95.3623 12.0175H101.332L102.449 7.86613H96.4147Z" fill="#8A92AD"/>
<path d="M60.7801 7.86613C59.0007 7.86613 57.348 8.3912 56.0033 9.38469C54.6453 10.3876 53.8976 11.5921 53.4499 13.2526C52.4828 16.8533 55.3208 18.5908 57.6006 19.8222C59.2356 20.7051 60.6471 21.4671 60.3444 22.5956C60.1256 23.4063 59.7722 24.1136 57.7603 24.1136H51.6208L50.505 28.266H57.3009C59.1267 28.266 60.8068 27.8875 62.1616 26.8507C63.5203 25.8082 64.285 24.3575 64.7604 22.5877C65.2141 20.9024 64.906 19.2952 63.8223 18.0917C62.9152 17.0862 61.6103 16.3848 60.4604 15.7658C58.9911 14.9765 57.604 14.2309 57.8471 13.3259C57.9928 12.7801 58.54 12.0175 59.727 12.0175H65.6962L66.814 7.86613H60.7801Z" fill="#8A92AD"/>
<path d="M70.0538 7.86613L64.7235 28.266H69.2246L74.5536 7.86613H70.0538Z" fill="#8A92AD"/>
<path d="M86.5331 7.86613C78.6049 7.8948 74.4575 13.1603 73.1399 18.0657C71.578 23.8814 74.6834 28.266 80.3606 28.266H84.1678L85.2821 24.1136H81.4779C79.3521 24.1136 76.43 22.4454 77.6066 18.0657C78.5431 14.5837 81.9454 12.0175 85.6823 12.0175H88.0979L89.2137 7.86613H86.5331Z" fill="#8A92AD"/>
</svg>
