<svg width="207" height="42" viewBox="0 0 207 42" fill="none" xmlns="http://www.w3.org/2000/svg">
<path d="M61.5216 33.6772H55.1142L60.1743 0.365127H68.7272L73.7839 33.6863H67.4216L66.7046 28.8896H62.2385L61.5216 33.6772ZM65.9045 23.0594L64.6404 15.062H64.3027L62.997 23.0594H65.9045Z" fill="#8A92AD"/>
<path d="M94.6197 0.355909H107.766V6.88722H101.572V12.9292H106.67V19.948H101.572V27.1458H107.766V33.6771H94.6197V0.355909Z" fill="#8A92AD"/>
<path d="M35.8289 33.9184H28.7514V41.3809H35.8289V33.9184Z" fill="#8A92AD"/>
<path d="M184.557 33.6771H177.604V6.88722H173.188V0.355909H188.971V6.88722H184.557V33.6771Z" fill="#8A92AD"/>
<path d="M9.69762 13.1064C7.87932 11.4631 6.58053 10.3968 6.58053 8.39922V5.64209H9.94526V8.39922C9.94526 11.9086 10.2812 12.3085 10.2812 12.3085H16.4756C16.4756 12.3085 16.1812 11.8649 16.1812 8.17646C16.1812 2.57637 12.0943 0 8.30012 0C3.37165 0 0 3.3323 0 9.10768C0 14.4394 4.21327 17.9945 6.65846 20.2147C8.46984 21.8581 10.1132 22.9262 10.1132 25.5099V28.2634H6.61516V25.5026C6.61516 21.5934 6.19436 21.1478 6.19436 21.1478H0.211269L0 25.5464C0 31.1447 4.29812 34.0332 8.30012 34.0332C13.4001 34.0332 16.8964 30.7886 16.8964 24.5257C16.8964 19.0608 12.5151 15.639 9.69242 13.1064" fill="#8A92AD"/>
<path d="M199.389 13.1062C197.577 11.4629 196.271 10.3965 196.271 8.39711V5.6418H199.642V8.39894C199.642 11.9084 199.988 12.3082 199.988 12.3082H206.182C206.182 12.3082 205.886 11.8645 205.886 8.17618C205.886 2.57791 201.799 0.00153649 198.007 0.00153649C193.076 0.00153649 189.707 3.33384 189.707 9.10923C189.707 14.4409 193.919 17.9959 196.363 20.2163C198.174 21.8596 199.826 22.9278 199.826 25.5115V28.265H196.329V25.5024C196.329 21.593 195.908 21.1475 195.908 21.1475H189.923L189.713 25.5461C189.713 31.1444 194.012 34.033 198.013 34.033C203.112 34.033 206.61 30.7883 206.61 24.5254C206.61 19.0604 202.227 15.6387 199.404 13.1062" fill="#8A92AD"/>
<path d="M35.7744 9.64085C35.6064 4.13205 32.2781 0 27.0535 0C21.8289 0 18.5403 4.13205 18.3723 9.64085L18.1611 17.0157L18.3723 24.3924C18.5456 29.9013 21.8358 34.0332 27.0535 34.0332C32.2712 34.0332 35.6064 29.9013 35.7744 24.3924L35.9856 17.0157L35.7744 9.64085ZM28.8233 8.39922L28.6968 17.0175L28.8233 25.5045V28.2597H25.2837V25.5026L25.4101 17.0157L25.2837 8.39922V5.64209H28.8233V8.39922Z" fill="#8A92AD"/>
<path d="M48.3755 0.365127L48.0379 8.80635V28.2578H44.5831V8.79721L44.2454 0.365127H37.8831V17.0156L38.0943 25.4149C38.2208 30.6133 41.5491 34.035 46.2681 34.035C50.987 34.035 54.2738 30.6133 54.4436 25.4149L54.6963 17.0156V0.365127H48.3755Z" fill="#8A92AD"/>
<path d="M153.136 9.64085C152.968 4.13205 149.639 0 144.415 0C139.19 0 135.901 4.13205 135.733 9.64085L135.522 17.0157L135.733 24.3924C135.906 29.9013 139.197 34.0332 144.415 34.0332C149.632 34.0332 152.968 29.9013 153.136 24.3924L153.346 17.0157L153.136 9.64085ZM146.184 8.39922L146.057 17.0175L146.184 25.5045V28.2597H142.645V25.5026L142.772 17.0157L142.645 8.39922V5.64209H146.184V8.39922Z" fill="#8A92AD"/>
<path d="M172.53 9.64085C172.357 4.13205 169.032 0 163.807 0C158.582 0 155.296 4.13205 155.127 9.64085L154.916 17.0157L155.127 24.3924C155.3 29.9013 158.591 34.0332 163.807 34.0332C169.023 34.0332 172.362 29.9013 172.53 24.3924L172.74 17.0157L172.53 9.64085ZM165.577 8.39922L165.45 17.0175L165.577 25.5045V28.2597H162.038V25.5026L162.163 17.0157L162.038 8.39922V5.64209H165.577V8.39922Z" fill="#8A92AD"/>
<path d="M93.1553 33.6772C93.1553 33.6772 92.6479 33.2317 92.6479 27.0582V22.3108C92.6479 18.4015 87.6259 17.0156 85.5271 16.5792V16.2141C87.6328 15.6371 92.2253 14.6146 92.563 9.41803L92.48 7.7747C92.1856 3.46919 89.5308 0.365127 85.4439 0.365127H75.2459V33.6772H82.1988V19.2378H83.3798C84.6854 19.2378 85.5289 19.8148 85.5289 21.7704V33.6772H93.1553ZM82.1572 13.2834V5.64203H85.5289V13.2834H82.1572Z" fill="#8A92AD"/>
<path d="M134.544 33.6772C134.544 33.6772 134.036 33.2317 134.036 27.0582V22.3108C134.036 18.4015 129.015 17.0156 126.915 16.5792V16.2141C129.021 15.6371 133.616 14.6146 133.951 9.41803L133.868 7.7747C133.574 3.46919 130.919 0.365127 126.832 0.365127H116.636V33.6772H123.588V19.2378H124.768C126.074 19.2378 126.917 19.8148 126.917 21.7704V33.6772H134.544ZM123.545 13.2834V5.64203H126.919V13.2834H123.545Z" fill="#8A92AD"/>
</svg>
